<?xml version="1.0" standalone="no"?>
<!DOCTYPE svg PUBLIC "-//W3C//DTD SVG 20010904//EN"
 "http://www.w3.org/TR/2001/REC-SVG-20010904/DTD/svg10.dtd">
<svg version="1.0" xmlns="http://www.w3.org/2000/svg"
 width="260.000000pt" height="260.000000pt" viewBox="0 0 260.000000 260.000000"
 preserveAspectRatio="xMidYMid meet">
<metadata>
Created by potrace 1.14, written by Peter Selinger 2001-2017
</metadata>
<g transform="translate(0.000000,260.000000) scale(0.100000,-0.100000)"
fill="#000000" stroke="none">
<path d="M1451 2351 c-8 -5 -23 -8 -33 -6 -60 12 -125 -101 -119 -203 0 -13
-8 -36 -20 -50 -13 -17 -19 -38 -17 -59 3 -39 0 -42 -47 -48 -21 -3 -40 -7
-42 -8 -1 -2 -5 -50 -9 -108 -3 -57 -7 -106 -10 -108 -8 -8 19 -31 37 -31 26
0 24 -7 -16 -51 -20 -22 -35 -50 -35 -63 0 -17 -10 -31 -29 -42 -16 -10 -35
-29 -42 -43 -8 -14 -35 -51 -61 -81 -106 -122 -134 -153 -162 -178 -17 -15
-55 -52 -85 -83 -53 -53 -61 -59 -78 -59 -13 0 -63 -47 -63 -58 0 -6 -18 -31
-39 -56 -21 -25 -41 -49 -42 -54 -5 -12 -174 -122 -187 -122 -6 0 -12 -3 -14
-8 -4 -9 -147 -92 -159 -92 -5 0 -9 -4 -9 -8 0 -5 -23 -19 -51 -32 -28 -13
-55 -32 -60 -41 -5 -10 -9 -84 -9 -166 0 -135 2 -150 21 -173 11 -14 18 -20
15 -13 -5 9 2 8 20 -2 15 -8 31 -12 36 -9 4 3 5 -3 1 -12 -3 -10 -2 -15 3 -12
5 3 41 9 79 13 83 9 129 14 170 20 27 4 107 14 145 19 9 1 21 5 28 10 6 4 17
4 22 1 6 -3 10 -2 10 3 0 5 6 9 13 9 25 1 85 13 110 22 14 5 28 7 31 4 3 -3
13 0 22 8 10 8 20 13 23 11 9 -5 94 20 109 31 6 5 12 7 12 3 0 -3 12 -1 28 5
15 6 34 12 42 14 8 3 40 11 70 20 30 9 69 20 85 25 17 4 51 15 77 23 26 8 49
12 52 9 4 -3 6 0 6 7 0 7 5 9 10 6 6 -4 18 -1 27 7 9 7 17 12 17 10 1 -2 8 -1
16 2 8 2 29 8 45 12 41 10 45 11 48 14 3 2 23 7 62 15 16 3 35 11 42 17 8 6
16 8 20 5 3 -4 11 -3 17 2 9 7 184 67 221 76 6 1 17 5 25 8 15 6 181 61 190
63 31 6 67 18 75 24 6 5 27 11 48 15 20 4 37 11 37 17 0 5 4 7 10 3 5 -3 17
-1 27 4 10 5 65 24 123 41 111 34 117 36 193 69 l49 22 -5 97 c-6 97 -9 124
-20 152 -3 8 -14 39 -23 67 -9 29 -20 53 -24 53 -4 0 -7 16 -8 35 -3 68 -65
250 -106 310 -12 17 -20 32 -18 35 4 9 -17 53 -47 100 -16 25 -30 50 -30 57
-2 25 -82 222 -95 232 -17 14 -46 21 -111 26 -27 2 -61 7 -75 10 -14 3 -42 8
-63 11 -21 2 -47 9 -58 14 -10 6 -19 9 -19 6 0 -3 -15 0 -32 5 -18 6 -46 13
-63 16 -36 6 -32 1 -38 41 -10 65 -60 107 -138 115 -19 2 -40 7 -47 11 -7 4
-12 3 -12 -1 0 -5 -20 -9 -45 -9 -24 -1 -42 3 -39 8 7 10 3 10 -15 -1z"/>
</g>
</svg>
